<svg xmlns="http://www.w3.org/2000/svg" enable-background="new 0 0 250 250" version="1.1"
    class="w-full h-full" viewBox="0 0 250 250" xml:space="preserve"><title>Angular</title><path d="M125 30L125 30 125 30 31.9 63.2 46.1 186.3 125 230 125 230 125 230 203.9 186.3 218.1 63.2z" fill="#DD0031"></path><path d="M125 30L125 52.2 125 52.1 125 153.4 125 153.4 125 230 125 230 203.9 186.3 218.1 63.2 125 30z" fill="#C3002F"></path><path d="M125 52.1L66.8 182.6h21.7l11.7-29.2h49.4l11.7 29.2H183L125 52.1zm17 83.3h-34l17-40.9 17 40.9z" fill="#FFFFFF"></path></svg>